<svg width="32" height="32" viewBox="0 0 32 32" fill="none" xmlns="http://www.w3.org/2000/svg">
  <rect width="32" height="32" rx="8" fill="#e87b35"/>
  <!-- basket handle -->
  <path d="M11 13 C11 8.5 16 6 16 6 C16 6 21 8.5 21 13" stroke="white" stroke-width="1.8" stroke-linecap="round" fill="none"/>
  <!-- basket rim -->
  <path d="M7 14 L25 14" stroke="white" stroke-width="2" stroke-linecap="round"/>
  <!-- basket body -->
  <path d="M8.5 14 L10.5 24 C10.7 25 11.5 25.5 12.5 25.5 L19.5 25.5 C20.5 25.5 21.3 25 21.5 24 L23.5 14" stroke="white" stroke-width="1.8" stroke-linejoin="round" fill="none"/>
  <!-- basket weave lines -->
  <path d="M13 14 L13.8 25" stroke="white" stroke-width="1.2" stroke-linecap="round" opacity="0.6"/>
  <path d="M16 14 L16 25.2" stroke="white" stroke-width="1.2" stroke-linecap="round" opacity="0.6"/>
  <path d="M19 14 L18.2 25" stroke="white" stroke-width="1.2" stroke-linecap="round" opacity="0.6"/>
  <!-- horizontal weave -->
  <path d="M10 18.5 L22 18.5" stroke="white" stroke-width="1" stroke-linecap="round" opacity="0.4"/>
  <path d="M10.5 22 L21.5 22" stroke="white" stroke-width="1" stroke-linecap="round" opacity="0.4"/>
</svg>
